<svg width="1350" height="674" viewBox="0 0 1350 674" fill="none" xmlns="http://www.w3.org/2000/svg">
<path d="M173.5 43.5187C228.5 -56.4813 45.5112 69.0786 0 256.019V673.519H1350V256.019C1304.49 69.0785 1121.5 -56.4814 1176.5 43.5186C1231.5 143.519 1145 164.018 1176.5 319.019C1208 474.019 1024.5 -168.981 1024.5 43.5186C1024.5 256.019 919.5 345.519 919.5 345.519C955.167 88.0989 819.5 -74.4812 848.5 62.0186C877.5 198.518 752.038 315.769 746 345.519C739.962 375.268 706.5 96.0184 675 22.5186C643.5 96.0184 610.038 375.268 604 345.519C597.962 315.769 472.5 198.518 501.5 62.0187C530.5 -74.4811 394.833 88.099 430.5 345.519C430.5 345.519 325.5 256.019 325.5 43.5187C325.5 -168.981 142 474.019 173.5 319.019C205 164.019 118.5 143.519 173.5 43.5187Z" fill="#191919"/>
</svg>
